<?xml version="1.0" encoding="iso-8859-1"?>
<!-- Generator: Adobe Illustrator 21.0.0, SVG Export Plug-In . SVG Version: 6.00 Build 0)  -->
<svg version="1.1" id="Capa_1" xmlns="http://www.w3.org/2000/svg" xmlns:xlink="http://www.w3.org/1999/xlink" x="0px" y="0px"
	 viewBox="0 0 804.87 490.91" style="enable-background:new 0 0 804.87 490.91;" xml:space="preserve">
<g>
	<path style="fill:#EC1C26;" d="M47.89,0h709.09c26.34,0,47.89,21.55,47.89,47.89v395.12c0,26.34-21.55,47.89-47.89,47.89H47.89
		C21.55,490.91,0,469.35,0,443.01V47.89C0,21.55,21.55,0,47.89,0L47.89,0z"/>
	<path style="fill:#FFFFFF;" d="M208.49,206.02c5.92-0.03,10.39,3.16,14.56,6.82c8.37,7.36,14.56,16.61,20.39,26.15
		c8.4,13.77,15.44,28.23,21.57,43.23c0.78,1.89,1.42,3.92,1.75,5.94c0.79,4.9-0.75,8.84-5.47,10.45c-4.98,1.71-7.34-1.8-8.97-5.97
		c-7.22-18.38-15.56-36.16-26.22-52.68c-3.35-5.21-7.04-10.14-11.93-13.96c-3.69-2.87-7.22-2.97-11-0.16
		c-5.17,3.82-8.91,9-12.39,14.37c-10.39,15.95-18.52,33.13-25.59,50.88c-1.81,4.58-3.6,9.38-9.79,7.45
		c-4.86-1.52-6.92-7.39-4.47-13.61c9.18-23.24,20.12-45.51,35.86-64.8C192.54,213.12,198.94,206.81,208.49,206.02L208.49,206.02z
		 M55.36,263.05c0-6.69-0.06-13.39,0.03-20.12c0.06-4.58,0.54-9.25,6.43-9.28c5.89-0.03,6.44,4.45,6.44,9.19
		c0,12.16,0.09,24.29-0.06,36.44c-0.03,3.28,0.76,4.8,4.11,5.27c14.38,2.02,28.37,1.2,41.6-5.56c15.13-7.74,24.35-30.38,5.05-46.83
		c-10.88-9.28-23.71-11.56-36.98-12.66c-11.05-0.92-21.96,0.35-32.63,3.51c-3.75,1.11-7.46,1.74-9.03-3
		c-1.48-4.55,1.03-7.74,4.89-9.41c8.46-3.69,17.46-4.33,26.49-4.55c16.37-0.41,32.41,1.61,47.43,8.84
		c13.62,6.57,23.53,16.64,26.04,32.84c2.75,17.87-7.13,35.75-24.5,43.83c-17.58,8.21-36.04,9.13-54.74,5.81
		c-7.43-1.33-10-5.02-10.54-12.98c-0.03-0.41-0.03-0.85-0.03-1.26V263.05L55.36,263.05z"/>
	<path style="fill:#FFFFFF;" d="M312.31,299.06c-4.89-0.13-8.76-2.62-12.33-5.84c-6.61-5.94-11.63-13.26-16.25-20.87
		c-9.64-15.95-17.37-32.91-23.96-50.43c-1.09-2.94-2.24-5.94-1.33-9.16c0.97-3.35,2.66-6.16,6.43-6.57
		c3.69-0.38,5.41,2.08,6.56,5.24c4.02,11.15,8.49,22.11,13.59,32.75c5.07,10.67,10.3,21.29,17.76,30.44
		c7.16,8.78,11.9,8.97,18.94,0.19c11.33-14.12,18.4-30.79,25.5-47.4c2.27-5.34,4.14-10.86,6.31-16.26c1.24-3.06,3.11-5.56,6.77-4.93
		c3.62,0.6,5.47,3.22,6.13,6.79c0.42,2.27,0.27,4.58-0.54,6.79c-8.46,22.64-18.31,44.56-32.5,64.04
		c-3.05,4.17-6.49,7.99-10.57,11.12C319.71,297.41,316.33,299.15,312.31,299.06L312.31,299.06z"/>
	<path style="fill:#FFFFFF;" d="M396.74,253.39c0,11.91,0.06,23.81-0.03,35.72c-0.03,6.85-2.51,10.07-7.31,9.92
		c-4.68-0.16-7.31-3.67-7.31-10.2c-0.03-24.03-0.03-48.06,0-72.1c0-6.6,2.6-10.2,7.19-10.33c4.74-0.16,7.43,3.54,7.46,10.61
		C396.8,229.14,396.74,241.26,396.74,253.39L396.74,253.39z"/>
	<path style="fill:#FFFFFF;" d="M433.3,268.06c0,1.71,0.26,3.29,0.53,4.74c2.11,8.03,9.08,13.56,17.38,13.56
		c12.24,0,19.35-10.01,19.35-24.62c0-12.77-6.71-23.7-18.96-23.7c-7.9,0-15.27,5.66-17.51,14.35c-0.39,1.45-0.79,3.16-0.79,4.74
		V268.06L433.3,268.06z M421.85,251.08c0-8.16-0.26-14.74-0.53-20.8h10.4l0.53,10.93h0.26c4.74-7.77,12.24-12.37,22.64-12.37
		c15.4,0,26.99,13.03,26.99,32.38c0,22.91-13.96,34.23-28.96,34.23c-8.43,0-15.8-3.69-19.62-10h-0.26v34.62h-11.45V251.08
		L421.85,251.08z"/>
	<polygon style="fill:#FFFFFF;" points="496.74,294 508.33,294 508.33,200.53 496.74,200.53 496.74,294 	"/>
	<path style="fill:#FFFFFF;" d="M561.38,261.48c-12.64-0.26-26.99,1.97-26.99,14.35c0,7.5,5,11.06,10.93,11.06
		c8.29,0,13.56-5.26,15.4-10.66c0.4-1.18,0.66-2.5,0.66-3.69V261.48L561.38,261.48z M563.09,294l-0.92-8.03h-0.4
		c-3.55,5-10.4,9.48-19.48,9.48c-12.9,0-19.48-9.08-19.48-18.3c0-15.4,13.69-23.83,38.31-23.7v-1.32c0-5.26-1.45-14.74-14.48-14.74
		c-5.92,0-12.11,1.84-16.59,4.74l-2.63-7.63c5.26-3.42,12.9-5.66,20.93-5.66c19.48,0,24.22,13.29,24.22,26.07v23.83
		c0,5.53,0.26,10.92,1.05,15.27H563.09L563.09,294z"/>
	<path style="fill:#FFFFFF;" d="M604.69,211.98v18.3h16.59v8.82h-16.59v34.36c0,7.9,2.24,12.37,8.69,12.37
		c3.03,0,5.27-0.39,6.72-0.79l0.52,8.69c-2.24,0.92-5.79,1.58-10.27,1.58c-5.4,0-9.74-1.71-12.51-4.87
		c-3.29-3.42-4.48-9.08-4.48-16.59V239.1h-9.87v-8.82h9.87v-15.27L604.69,211.98L604.69,211.98z"/>
	<path style="fill:#FFFFFF;" d="M667.87,261.48c-12.64-0.26-26.99,1.97-26.99,14.35c0,7.5,5,11.06,10.93,11.06
		c8.3,0,13.56-5.26,15.4-10.66c0.4-1.18,0.66-2.5,0.66-3.69V261.48L667.87,261.48z M669.58,294l-0.92-8.03h-0.39
		c-3.55,5-10.4,9.48-19.48,9.48c-12.9,0-19.48-9.08-19.48-18.3c0-15.4,13.69-23.83,38.31-23.7v-1.32c0-5.26-1.45-14.74-14.48-14.74
		c-5.92,0-12.11,1.84-16.58,4.74l-2.63-7.63c5.27-3.42,12.9-5.66,20.93-5.66c19.48,0,24.22,13.29,24.22,26.07v23.83
		c0,5.53,0.26,10.92,1.05,15.27H669.58L669.58,294z"/>
	<path style="fill:#FFFFFF;" d="M378.42,192c-1.57,1.7-4.22,1.81-5.92,0.25c-1.7-1.57-1.81-4.22-0.25-5.92
		c0.07-0.08,25.29-27.68,71.09-57.08c11.67-7.49,24.22-15.13,37.23-22.33c12.99-7.18,26.49-13.94,40.12-19.68l5.45-2.34
		c11.65-5.01,22.97-9.89,33.72-10.11c15.19-0.32,31.84,4.44,46.46,10.3c14.45,5.8,26.91,12.67,33.89,16.72l0,0.01
		c0.89,0.51,1.79,1.16,2.69,1.86c-0.03-0.09-0.06-0.19-0.08-0.28c-0.23-1.05-0.42-1.9-0.52-2.63c-0.07-0.51-0.08-1.15,0-1.83
		c0.2-1.75,1.06-4.71,3.25-7.36c2.14-2.58,5.52-4.92,10.74-5.63c1.96-0.26,4.17-0.29,6.65-0.01c6.02,0.69,12.02,0.41,17.69,0.14
		c5.93-0.28,11.53-0.55,16.75,0.23l0.33,0.05c3.62,0.49,15.61,2.11,13.63,16.6l-0.02,0.13c-0.46,2.75-1.63,8.7-2.94,15.33
		c-1.78,9.04-3.82,19.34-4.54,23.91c-0.01,0.05,0,0.11,0.03,0.18c0.02,0.06,0.06,0.11,0.09,0.15c1.61,1.2,4.23,2.99,7.38,5.13
		c18.21,12.42,53.5,36.49,53.65,59.22c0.01,1.39-0.07,2.73-0.23,4.01c-1.37,10.83-8.31,17.65-17.72,21.75
		c-8.69,3.79-19.51,5.15-29.68,5.22c-4.51,0.03-8.91-0.2-12.93-0.58c0.62,9,3.09,28.5,23.94,56.24l0.07,0.07
		c11.14,15.54,16.31,30.82,15.69,45.66c-0.62,15.05-7.17,29.44-19.44,42.96l-0.21,0.23c-12.1,11.53-26.03,19.93-42.85,24.66
		c-16.65,4.69-36.08,5.74-59.33,2.64c-1.58-0.21-3.16-0.36-4.72-0.42c-1.51-0.06-3-0.03-4.47,0.09c-2.36,0.37-5.11,0.98-8.25,1.67
		c-17.17,3.79-45.23,9.97-92.25-2.44c-2.64,0.48-7.12,1.26-12.67,1.92c-6.36,0.75-14.34,1.38-23.15,1.32
		c-7.45-0.05-15.79-1.18-24.29-3.39c-15.98-4.15-32.69-12.14-45.4-23.99c-12.97-12.1-21.81-28.17-21.67-48.27
		c0.04-5.83,0.84-11.96,2.51-18.41c0.58-2.24,2.86-3.58,5.1-3c2.24,0.58,3.58,2.86,3,5.1c-1.5,5.77-2.21,11.22-2.25,16.34
		c-0.13,17.46,7.63,31.49,19.01,42.1c11.64,10.86,27.03,18.19,41.79,22.02c7.85,2.04,15.47,3.08,22.23,3.13
		c8.27,0.06,15.95-0.55,22.14-1.28c6.28-0.74,10.83-1.58,13.08-1.99l0.94-0.17l0.9,0.24c45.64,12.22,72.68,6.26,89.18,2.62
		c3.33-0.73,6.25-1.38,8.9-1.79l0.28-0.03c1.9-0.17,3.78-0.21,5.64-0.14c1.86,0.07,3.7,0.24,5.51,0.48
		c22.07,2.95,40.4,1.98,55.98-2.41c15.4-4.33,28.17-12.04,39.29-22.62c10.81-11.98,16.57-24.54,17.11-37.5
		c0.53-12.93-4.13-26.46-14.15-40.44l0.01-0.01c-23.88-31.79-25.17-53.89-25.68-62.57c-0.05-0.84-0.09-1.56-0.12-1.9
		c-0.07-0.7,0.01-1.36,0.2-1.97v-0.02c0.3-0.96,0.88-1.79,1.64-2.41c0.76-0.61,1.69-1.01,2.7-1.1c0.52-0.05,1.05-0.02,1.57,0.09
		c4.58,0.57,9.89,0.93,15.39,0.9c9.18-0.06,18.84-1.24,26.37-4.53c6.82-2.97,11.83-7.74,12.76-15.12c0.12-0.93,0.17-1.9,0.17-2.93
		c-0.12-18.3-33.02-40.74-50-52.33c-3.16-2.16-5.79-3.95-7.8-5.46l-0.13-0.1c-1.22-0.99-2.12-2.26-2.66-3.66
		c-0.53-1.39-0.7-2.93-0.46-4.48c0.83-5.23,2.83-15.34,4.57-24.2c1.33-6.72,2.51-12.74,2.91-15.1c0.76-6.09-4.8-6.84-6.47-7.06
		c-0.43-0.06,0.01,0.01-0.41-0.05c-4.49-0.67-9.66-0.42-15.14-0.16c-6.04,0.29-12.43,0.59-19.04-0.17c-1.79-0.21-3.31-0.2-4.58-0.02
		c-2.73,0.37-4.39,1.47-5.39,2.67c-0.93,1.12-1.29,2.26-1.37,2.93c0.07,0.34,0.21,1,0.38,1.77c0.92,4.23,2.38,10.87-0.82,13.2
		c-3.59,2.61-7.27-0.36-10.94-3.33c-1.23-0.99-2.46-1.99-3.23-2.43h-0.02c-6.78-3.94-18.87-10.61-32.81-16.2
		c-13.76-5.52-29.32-10-43.18-9.71c-9.04,0.19-19.66,4.76-30.57,9.46c-1.08,0.47-2.15,0.93-5.51,2.34
		c-13.23,5.57-26.48,12.21-39.34,19.32c-12.83,7.1-25.22,14.64-36.73,22.03C402.99,165.11,378.5,191.92,378.42,192L378.42,192z
		 M644.89,106.39c-0.12,1.18-0.68,2.42,0.39,1.64C645.85,107.61,645.49,107.06,644.89,106.39L644.89,106.39z M650.61,99.65l0,0.02
		C650.61,99.62,650.6,99.59,650.61,99.65L650.61,99.65z M697.69,86.35C697.65,86.35,697.6,86.34,697.69,86.35L697.69,86.35
		L697.69,86.35z"/>
</g>
</svg>
